<svg width="180" height="180" viewBox="0 0 180 180" fill="none" xmlns="http://www.w3.org/2000/svg">
<circle cx="90" cy="90" r="90" fill="#FFF2DF"/>
<path d="M83.9842 148.611L82.3042 159.004L76.5548 158.075L76.6697 157.364L81.5819 158.158L82.1972 154.351L78.0748 153.685L78.1922 152.958L82.3147 153.625L83.0321 149.186L77.962 148.367L78.0769 147.656L83.9842 148.611Z" fill="#0D2725"/>
<path d="M70.2343 145.518L66.268 148.209L67.023 152.515L66.1842 152.157L65.8276 149.935C65.7992 149.702 65.7631 149.461 65.7192 149.21C65.6754 148.959 65.6316 148.709 65.5877 148.458L65.5289 148.433C65.3176 148.575 65.1113 148.719 64.9098 148.865C64.7084 149.011 64.509 149.152 64.3117 149.288L62.5197 150.593L61.725 150.254L65.387 147.746L64.5537 143.094L65.3778 143.446L65.7957 145.851C65.8213 146.117 65.8617 146.389 65.9168 146.668C65.962 146.942 66.0143 147.214 66.0736 147.482L66.1324 147.508C66.3577 147.36 66.5801 147.206 66.7997 147.044C67.0152 146.893 67.2397 146.733 67.4734 146.566L69.4396 145.179L70.2343 145.518Z" fill="#0D2725"/>
<path d="M59.414 136.306L52.7079 145.196L52.1587 144.782L52.6505 143.971L52.6249 143.951C52.147 143.965 51.6661 143.929 51.182 143.845C50.6831 143.762 50.2505 143.583 49.8843 143.307C49.3308 142.889 48.9715 142.418 48.8066 141.893C48.6331 141.361 48.6368 140.789 48.8177 140.178C48.9836 139.568 49.3043 138.948 49.7796 138.318C50.3063 137.62 50.8837 137.12 51.5117 136.819C52.1312 136.511 52.7449 136.379 53.3528 136.424C53.9607 136.468 54.5073 136.673 54.9927 137.039C55.2738 137.251 55.5236 137.54 55.7424 137.905C55.9462 138.273 56.1146 138.687 56.2478 139.148L57.0732 138.027L58.7497 135.805L59.414 136.306ZM54.6103 137.653C54.21 137.351 53.7699 137.199 53.2899 137.198C52.8014 137.19 52.3135 137.323 51.8264 137.597C51.3392 137.871 50.8869 138.285 50.4694 138.838C50.1032 139.324 49.8395 139.806 49.6782 140.286C49.5105 140.774 49.4836 141.234 49.5976 141.668C49.7031 142.095 49.9815 142.478 50.4329 142.819C50.7224 143.037 51.09 143.188 51.5356 143.27C51.9727 143.346 52.4922 143.357 53.0939 143.303L55.7821 139.739C55.662 139.208 55.4936 138.767 55.277 138.416C55.0539 138.074 54.8317 137.82 54.6103 137.653Z" fill="#0D2725"/>
<path d="M45.302 127.965C45.4479 128.135 45.5366 128.312 45.568 128.496C45.5925 128.672 45.5562 128.851 45.4592 129.033C45.3541 129.221 45.1883 129.413 44.9617 129.608L37.1084 136.352L36.5663 135.721L44.4924 128.914C44.63 128.796 44.7103 128.684 44.7333 128.58C44.7483 128.483 44.7245 128.398 44.6619 128.325C44.6411 128.301 44.6168 128.273 44.589 128.24C44.5531 128.215 44.5068 128.177 44.45 128.128L44.8643 127.603C44.9291 127.646 44.9974 127.693 45.0692 127.744C45.141 127.794 45.2186 127.868 45.302 127.965Z" fill="#0D2725"/>
<path d="M38.6517 118.362C38.9454 118.907 39.0827 119.487 39.0636 120.103C39.0301 120.715 38.8264 121.304 38.4526 121.869C38.0694 122.439 37.5022 122.927 36.7512 123.332C36.0001 123.737 35.2811 123.943 34.594 123.95C33.907 123.957 33.3033 123.804 32.7829 123.491C32.2481 123.173 31.8338 122.742 31.5402 122.198C31.2465 121.653 31.1164 121.075 31.1499 120.463C31.169 119.847 31.3701 119.254 31.7533 118.684C32.1315 118.104 32.6961 117.611 33.4472 117.206C34.1982 116.801 34.9198 116.6 35.6119 116.602C36.2895 116.6 36.8958 116.758 37.4306 117.076C37.951 117.389 38.358 117.818 38.6517 118.362ZM38.018 118.704C37.78 118.263 37.4453 117.934 37.0138 117.719C36.5773 117.494 36.09 117.399 35.5518 117.435C35.0042 117.475 34.4394 117.653 33.8573 117.967C33.2752 118.281 32.8168 118.655 32.4818 119.09C32.1469 119.526 31.9536 119.987 31.902 120.476C31.8358 120.96 31.9218 121.423 32.1598 121.864C32.3978 122.305 32.7372 122.631 33.178 122.842C33.6095 123.057 34.1015 123.149 34.6541 123.118C35.2017 123.077 35.7665 122.9 36.3486 122.586C36.9307 122.272 37.3892 121.897 37.7241 121.462C38.0445 121.023 38.2331 120.563 38.2899 120.084C38.3466 119.605 38.256 119.145 38.018 118.704Z" fill="#0D2725"/>
<path d="M33.5845 106.905L26.1491 108.891L25.9716 108.226L27.3226 107.766L27.3143 107.735C26.7818 107.601 26.3231 107.393 25.9382 107.109C25.5533 106.825 25.303 106.467 25.1874 106.034C25.1517 105.9 25.1276 105.769 25.1151 105.64C25.1027 105.51 25.1123 105.381 25.1438 105.251L25.9003 105.231C25.8818 105.368 25.8798 105.485 25.8943 105.58C25.8957 105.668 25.917 105.79 25.9583 105.944C26.0464 106.274 26.2777 106.582 26.6523 106.868C27.0269 107.155 27.5966 107.345 28.3614 107.439L33.3698 106.101L33.5845 106.905Z" fill="#0D2725"/>
<path d="M31.3421 92.0588C31.3663 92.7197 31.2286 93.3279 30.9287 93.8832C30.6289 94.4386 30.1864 94.8871 29.6012 95.2288C29.0053 95.5709 28.2864 95.7574 27.4443 95.7883C26.6128 95.8189 25.8874 95.6854 25.2681 95.3879C24.6488 95.0904 24.1698 94.6917 23.8313 94.1918C23.4817 93.6816 23.2963 93.1387 23.2751 92.5631C23.2525 91.9449 23.377 91.4119 23.6487 90.9643C23.9095 90.5065 24.302 90.1505 24.8264 89.8964C25.3503 89.6317 25.9854 89.4856 26.7316 89.4582C26.8275 89.4547 26.929 89.4563 27.036 89.4631C27.1426 89.4591 27.2442 89.4661 27.3409 89.4839L27.5493 95.1601L26.8937 95.1841L26.7118 90.2275C25.7737 90.2619 25.0775 90.4849 24.6229 90.8965C24.1577 91.3086 23.9376 91.8557 23.9627 92.5379C23.9779 92.9536 24.1154 93.3541 24.375 93.7395C24.624 94.1253 25.0037 94.437 25.5141 94.6744C26.0138 94.9122 26.6474 95.017 27.4149 94.9889C28.1291 94.9627 28.7267 94.8126 29.2076 94.5388C29.6882 94.2543 30.0539 93.894 30.3047 93.4578C30.5555 93.0217 30.6712 92.5371 30.6516 92.0041C30.6363 91.5884 30.5587 91.2177 30.4186 90.8919C30.2786 90.5662 30.1074 90.2629 29.9049 89.9822L30.4848 89.6407C30.688 89.9427 30.8766 90.2827 31.0506 90.6606C31.2246 91.0385 31.3217 91.5045 31.3421 92.0588Z" fill="#0D2725"/>
<path d="M34.055 70.9761L24.3686 66.8514L24.7134 66.0418L33.0892 64.913L35.511 64.6574L35.536 64.5985C35.0468 64.4133 34.5554 64.2331 34.062 64.0578C33.5728 63.8726 33.0877 63.6777 32.6068 63.4729L26.8509 61.0219L27.1644 60.2859L36.8508 64.4105L36.506 65.2202L28.1155 66.3427L25.7084 66.6046L25.6834 66.6635C26.1572 66.8305 26.6289 67.0024 27.0985 67.1791C27.5681 67.3559 28.0433 67.5467 28.5242 67.7515L34.3685 70.24L34.055 70.9761Z" fill="#0D2725"/>
<path d="M44.0589 53.3629C43.6685 53.8428 43.185 54.192 42.6085 54.4105C42.0304 54.614 41.4087 54.6514 40.7434 54.5227C40.0698 54.3872 39.402 54.0502 38.7401 53.5117C38.0781 52.9732 37.6123 52.388 37.3426 51.7561C37.0729 51.1241 36.983 50.5078 37.0729 49.9072C37.1613 49.2915 37.4006 48.7437 37.7911 48.2638C38.1815 47.7839 38.6657 47.4422 39.2438 47.2387C39.8203 47.0202 40.4454 46.9787 41.119 47.1141C41.7993 47.2413 42.4704 47.5742 43.1324 48.1127C43.7943 48.6512 44.2568 49.2406 44.5197 49.8808C44.7812 50.506 44.8677 51.1264 44.7794 51.7421C44.6895 52.3427 44.4493 52.883 44.0589 53.3629ZM43.5004 52.9085C43.8167 52.5196 43.9919 52.0846 44.0258 51.6034C44.0665 51.114 43.9672 50.6276 43.7279 50.1442C43.4804 49.654 43.1001 49.2003 42.5871 48.7829C42.0741 48.3656 41.5525 48.0856 41.0222 47.943C40.492 47.8003 39.9914 47.7987 39.5204 47.9382C39.048 48.0626 38.6535 48.3192 38.3372 48.7081C38.0208 49.097 37.8498 49.5354 37.8241 50.0233C37.7902 50.5045 37.8936 50.9943 38.1344 51.4927C38.382 51.9828 38.7622 52.4366 39.2752 52.8539C39.7882 53.2713 40.3099 53.5512 40.8401 53.6939C41.3689 53.8215 41.8653 53.8197 42.3295 53.6886C42.7937 53.5574 43.184 53.2974 43.5004 52.9085Z" fill="#0D2725"/>
<path d="M53.571 43.4613L47.3863 38.3628L48.1003 37.8762L51.9589 41.1522C52.2364 41.389 52.5066 41.6245 52.7693 41.8585C53.032 42.0925 53.2933 42.3339 53.5532 42.5828L53.6061 42.5467C53.4873 42.2018 53.367 41.8643 53.2453 41.5341C53.1324 41.198 53.0165 40.8575 52.8977 40.5125L51.2736 35.7139L52.0405 35.1914L55.9123 38.4583C56.1899 38.6951 56.4644 38.9276 56.7359 39.1556C57.0075 39.3836 57.2776 39.619 57.5463 39.8619L57.5992 39.8258C57.4804 39.4809 57.3601 39.1433 57.2384 38.8132C57.1167 38.4831 56.9964 38.1456 56.8775 37.8006L55.2138 33.0291L55.8882 32.5696L58.4236 40.1547L57.5509 40.7494L53.8449 37.6405C53.5553 37.3861 53.2732 37.133 52.9984 36.8813C52.7237 36.6297 52.4327 36.3826 52.1255 36.1402L52.0727 36.1762C52.2124 36.5328 52.3477 36.8924 52.4786 37.255C52.6034 37.6087 52.7225 37.9729 52.8358 38.3475L54.3908 42.9027L53.571 43.4613Z" fill="#0D2725"/>
<path d="M78.7355 29.6135C78.452 29.6644 78.1711 29.6389 77.8927 29.5372C77.6249 29.4335 77.3896 29.2699 77.1869 29.0461C76.9928 28.81 76.8628 28.5083 76.7968 28.1408C76.7328 27.7838 76.7507 27.4609 76.8506 27.1721C76.9609 26.8813 77.1237 26.6408 77.3388 26.4505C77.5644 26.2583 77.8189 26.1368 78.1024 26.0859C78.3754 26.0369 78.6458 26.0642 78.9136 26.1679C79.192 26.2696 79.4282 26.4386 79.6223 26.6747C79.8269 26.9089 79.9612 27.2045 80.0253 27.5614C80.0912 27.9289 80.069 28.258 79.9586 28.5487C79.8568 28.8271 79.6932 29.0624 79.4676 29.2546C79.2525 29.4449 79.0084 29.5645 78.7355 29.6135Z" fill="#0D2725"/>
<path d="M99.2594 31.629L101.505 21.3433L107.195 22.5856L107.041 23.289L102.18 22.2276L101.357 25.9949L105.437 26.8856L105.28 27.6047L101.201 26.7139L100.241 31.1065L105.259 32.202L105.106 32.9054L99.2594 31.629Z" fill="#0D2725"/>
<path d="M112.82 35.4694L116.927 32.9988L116.409 28.6583L117.227 29.0615L117.461 31.2999C117.477 31.5335 117.5 31.7767 117.53 32.0294C117.56 32.282 117.59 32.5347 117.62 32.7873L117.677 32.8156C117.896 32.6856 118.11 32.5532 118.319 32.4184C118.528 32.2837 118.735 32.1537 118.939 32.0285L120.8 30.8229L121.575 31.2049L117.781 33.5091L118.359 38.1999L117.556 37.8037L117.27 35.3796C117.259 35.1126 117.233 34.8384 117.194 34.5572C117.163 34.2807 117.126 34.0066 117.082 33.7349L117.024 33.7066C116.791 33.8415 116.561 33.9836 116.332 34.1328C116.109 34.2724 115.876 34.4192 115.634 34.5732L113.595 35.8514L112.82 35.4694Z" fill="#0D2725"/>
<path d="M123.12 45.259L130.302 36.7484L130.828 37.1922L130.293 37.9755L130.317 37.9961C130.795 38.0087 131.273 38.0704 131.752 38.1812C132.246 38.2908 132.668 38.4935 133.018 38.7893C133.548 39.2365 133.881 39.7268 134.017 40.2603C134.161 40.8007 134.126 41.3713 133.912 41.9723C133.713 42.572 133.359 43.1735 132.85 43.7767C132.286 44.4452 131.682 44.9126 131.039 45.179C130.403 45.4523 129.783 45.5502 129.179 45.4727C128.574 45.3952 128.04 45.1604 127.575 44.7683C127.306 44.5413 127.072 44.2394 126.874 43.8626C126.69 43.4845 126.545 43.0615 126.437 42.5938L125.552 43.6679L123.756 45.7956L123.12 45.259ZM127.99 44.1768C128.374 44.5001 128.805 44.6755 129.284 44.7031C129.771 44.7375 130.266 44.6313 130.767 44.3845C131.269 44.1377 131.743 43.7493 132.19 43.2195C132.582 42.7548 132.872 42.2875 133.059 41.8175C133.253 41.3393 133.305 40.8807 133.215 40.4417C133.133 40.0097 132.876 39.6113 132.444 39.2467C132.167 39.0128 131.808 38.8426 131.368 38.7361C130.935 38.6364 130.417 38.597 129.813 38.6179L126.934 42.0294C127.025 42.5667 127.169 43.0163 127.366 43.378C127.571 43.7317 127.779 43.9979 127.99 44.1768Z" fill="#0D2725"/>
<path d="M136.755 54.3583C136.619 54.1806 136.54 53.9991 136.519 53.8137C136.504 53.6368 136.55 53.4603 136.657 53.2841C136.772 53.1015 136.948 52.9192 137.185 52.7373L145.395 46.4321L145.902 47.0919L137.615 53.4556C137.472 53.5661 137.385 53.6726 137.357 53.7754C137.336 53.8716 137.355 53.9578 137.414 54.0339C137.433 54.0593 137.456 54.0889 137.482 54.1228C137.517 54.1501 137.561 54.1901 137.615 54.2429L137.172 54.7439C137.11 54.6977 137.044 54.6473 136.975 54.5926C136.907 54.5379 136.833 54.4598 136.755 54.3583Z" fill="#0D2725"/>
<path d="M142.871 64.3107C142.607 63.7509 142.502 63.1639 142.554 62.5496C142.621 61.9404 142.857 61.3639 143.261 60.82C143.675 60.2715 144.268 59.8155 145.04 59.4521C145.812 59.0887 146.541 58.9223 147.228 58.9528C147.914 58.9834 148.508 59.1693 149.011 59.5105C149.528 59.8567 149.918 60.3097 150.181 60.8695C150.445 61.4292 150.543 62.0137 150.476 62.6229C150.423 63.2372 150.19 63.8185 149.776 64.367C149.367 64.9251 148.776 65.3859 148.004 65.7493C147.232 66.1128 146.501 66.2744 145.81 66.2341C145.133 66.199 144.536 66.0083 144.02 65.662C143.517 65.3209 143.134 64.8704 142.871 64.3107ZM143.522 64.004C143.736 64.4576 144.052 64.8039 144.471 65.0429C144.894 65.2915 145.376 65.4127 145.915 65.4064C146.464 65.3955 147.038 65.2493 147.636 64.9676C148.235 64.686 148.713 64.337 149.071 63.9209C149.429 63.5047 149.647 63.0542 149.726 62.5693C149.818 62.0896 149.758 61.6229 149.544 61.1693C149.331 60.7157 149.01 60.3717 148.581 60.1373C148.162 59.8983 147.676 59.7794 147.122 59.7806C146.573 59.7914 145.999 59.9377 145.401 60.2194C144.803 60.501 144.324 60.8499 143.966 61.2661C143.622 61.6874 143.409 62.1356 143.326 62.6108C143.243 63.086 143.308 63.5504 143.522 64.004Z" fill="#0D2725"/>
<path d="M147.304 76.0279L154.837 74.4515L154.978 75.1249L153.603 75.5105L153.61 75.5418C154.134 75.7045 154.581 75.938 154.95 76.2422C155.319 76.5465 155.549 76.9178 155.641 77.3563C155.669 77.4921 155.686 77.6248 155.691 77.7544C155.697 77.8841 155.68 78.0129 155.641 78.1408L154.885 78.1193C154.911 77.9831 154.919 77.8669 154.91 77.7708C154.913 77.6829 154.899 77.5606 154.866 77.404C154.796 77.0699 154.582 76.7497 154.224 76.4433C153.865 76.1368 153.307 75.9159 152.548 75.7804L147.474 76.8423L147.304 76.0279Z" fill="#0D2725"/>
<path d="M148.731 90.9745C148.743 90.3132 148.914 89.7136 149.244 89.1754C149.574 88.6373 150.04 88.2136 150.643 87.9044C151.257 87.5954 151.985 87.4485 152.827 87.4636C153.659 87.4786 154.376 87.6515 154.978 87.9824C155.58 88.3133 156.037 88.7376 156.348 89.2553C156.669 89.7838 156.824 90.336 156.814 90.9119C156.803 91.5305 156.649 92.0558 156.353 92.4879C156.068 92.9308 155.657 93.2648 155.119 93.4899C154.582 93.7256 153.939 93.8367 153.193 93.8232C153.097 93.8215 152.996 93.8144 152.889 93.8018C152.783 93.7999 152.681 93.7874 152.586 93.7643L152.688 88.0852L153.344 88.097L153.255 93.0562C154.193 93.0731 154.901 92.8885 155.377 92.5023C155.864 92.1164 156.114 91.5821 156.126 90.8996C156.133 90.4836 156.018 90.0762 155.78 89.6771C155.552 89.2783 155.19 88.9464 154.694 88.6814C154.208 88.4166 153.581 88.2773 152.813 88.2635C152.098 88.2506 151.493 88.3678 150.998 88.6149C150.503 88.8727 150.118 89.2125 149.844 89.6343C149.569 90.0561 149.427 90.5336 149.418 91.0668C149.41 91.4828 149.468 91.8572 149.59 92.1901C149.712 92.523 149.866 92.8352 150.053 93.1266L149.455 93.4359C149.269 93.1232 149.099 92.7734 148.946 92.3866C148.793 91.9997 148.721 91.5291 148.731 90.9745Z" fill="#0D2725"/>
<path d="M144.87 111.877L154.316 116.525L153.928 117.315L145.503 117.984L143.071 118.107L143.042 118.164C143.521 118.376 144.002 118.583 144.485 118.785C144.963 118.996 145.437 119.218 145.906 119.448L151.519 122.21L151.166 122.928L141.719 118.28L142.108 117.491L150.547 116.828L152.965 116.698L152.993 116.641C152.529 116.448 152.068 116.251 151.608 116.049C151.149 115.847 150.685 115.63 150.216 115.399L144.517 112.595L144.87 111.877Z" fill="#0D2725"/>
<path d="M133.918 128.917C134.334 128.459 134.836 128.137 135.424 127.951C136.012 127.779 136.635 127.776 137.292 127.941C137.957 128.113 138.606 128.486 139.237 129.06C139.869 129.633 140.302 130.243 140.537 130.889C140.771 131.535 140.827 132.155 140.705 132.75C140.583 133.36 140.314 133.894 139.898 134.351C139.482 134.809 138.98 135.124 138.391 135.296C137.804 135.482 137.177 135.49 136.512 135.317C135.84 135.153 135.188 134.784 134.556 134.21C133.925 133.636 133.495 133.023 133.268 132.369C133.041 131.731 132.988 131.106 133.11 130.496C133.233 129.902 133.502 129.375 133.918 128.917ZM134.451 129.402C134.114 129.773 133.915 130.197 133.855 130.676C133.788 131.162 133.86 131.654 134.073 132.149C134.293 132.652 134.648 133.126 135.137 133.571C135.627 134.016 136.132 134.324 136.654 134.495C137.176 134.667 137.675 134.696 138.153 134.582C138.632 134.484 139.04 134.249 139.377 133.878C139.714 133.507 139.909 133.079 139.961 132.593C140.021 132.114 139.945 131.619 139.732 131.109C139.511 130.606 139.156 130.132 138.667 129.687C138.177 129.242 137.672 128.934 137.15 128.763C136.629 128.607 136.133 128.581 135.663 128.687C135.192 128.792 134.788 129.031 134.451 129.402Z" fill="#0D2725"/>
<path d="M123.879 138.284L129.776 143.713L129.036 144.16L125.362 140.678C125.098 140.426 124.841 140.176 124.592 139.928C124.342 139.68 124.095 139.425 123.849 139.162L123.794 139.195C123.894 139.546 123.995 139.89 124.099 140.226C124.193 140.568 124.29 140.914 124.39 141.265L125.749 146.146L124.955 146.625L121.268 143.152C121.004 142.9 120.742 142.653 120.483 142.41C120.225 142.168 119.968 141.918 119.713 141.661L119.658 141.694C119.758 142.045 119.86 142.389 119.963 142.725C120.066 143.061 120.168 143.405 120.268 143.756L121.668 148.611L120.97 149.033L118.853 141.321L119.757 140.774L123.287 144.081C123.563 144.351 123.83 144.619 124.091 144.886C124.352 145.152 124.629 145.414 124.922 145.673L124.977 145.64C124.857 145.277 124.741 144.91 124.631 144.541C124.525 144.181 124.426 143.811 124.334 143.431L123.03 138.797L123.879 138.284Z" fill="#0D2725"/>
<path d="M97.9952 150.736C98.281 150.7 98.5601 150.741 98.8325 150.858C99.0943 150.976 99.3203 151.152 99.5104 151.387C99.6913 151.633 99.8046 151.941 99.8504 152.312C99.8949 152.672 99.8593 152.993 99.7438 153.276C99.6177 153.561 99.442 153.792 99.2169 153.97C98.9811 154.15 98.7203 154.257 98.4345 154.292C98.1592 154.326 97.8907 154.284 97.6289 154.166C97.3566 154.049 97.1299 153.868 96.949 153.622C96.7576 153.376 96.6396 153.074 96.5951 152.714C96.5494 152.344 96.5896 152.016 96.7157 151.732C96.8325 151.459 97.0088 151.234 97.2446 151.054C97.4697 150.876 97.7199 150.77 97.9952 150.736Z" fill="#0D2725"/>
<path d="M74.2499 91.3113L89.9999 107.061L105.75 91.3113" stroke="#0D2725" stroke-width="2.25" stroke-linecap="round" stroke-linejoin="round"/>
<path d="M89.9996 104.874V72.9361" stroke="#0D2725" stroke-width="2.25" stroke-linecap="round" stroke-linejoin="round"/>
</svg>
